<svg width="1920" height="954" fill="none" xmlns="http://www.w3.org/2000/svg"><g clip-path="url(#prefix__clip0_58_864)"><g clip-path="url(#prefix__clip1_58_864)" fill="rgba(89,92,102,0.23)"><path d="M-116.708-231.745c-2.746 2.475-4.527 6.596-6.175 10.944-8.668 3.746-17.288 7.595-25.567 12.087-14.736 8.01-59.648 32.356-56.449 57.88 17.017 15.243 45.54-10.805 60.149-13.797 3.57-.72 10.128-2.225 17.676-3.467 6.504 7.233 7.542 1.358 13.486 6.722 1.275 4.804-.136 5.663-.365 8.304 3.658 3.421 7.34 6.052 10.766 7.881a86.367 86.367 0 00-5.205 2.063c-10.345 4.436-18.972 11.478-17.476 24.329 3.782 2.38 7.308 2.488 10.799 3.075-.589 3.208-.121 7.782 2.108 14.433 2.798 3.412 5.139 5.567 7.175 6.884-.093.36-.188.734-.26 1.125 2.145.502 4.417.906 6.724 1.262-2.97 2.96-5.663 6.171-7.934 9.73 7.738-.735 15.325-1.97 22.781-3.593.172 1.339.069 2.344-.144 3.208-.51.284-1.008.57-1.516.84-3.271 1.813-6.639 3.486-10.025 5.115-6.775 3.271-13.626 6.448-19.86 10.587-2.109 1.432-5.33 3.483-8.804 6.323-3.479 2.798-7.248 6.217-10.539 10.115-6.581 7.796-11.21 17.514-7.687 28.135 9.455 9.002 18.71 3.382 26.556-1.904 6.336 4.992 11.984 4.183 17.284 1.53 5.337-2.565 10.362-6.953 15.32-9.21 3.264.208 6.466.755 9.32 1.805-2.11 3.859-5.978 5.17-9.306 7.295 11.358 8.988 17.935-1.869 28.57 2.322a14.68 14.68 0 01-.329 2.23c-1.9 3.885-5.193 6.475-7.523 9.767.867.348 1.693.62 2.513.852 9.223 3.73 19.542 4.87 28.92 4.084l.376.23c1.122 4.022 1.046 7.08.24 9.48-7.646 3.692-14.796 8.053-17.312 13.603-3.328 2.193-6.712 4.618-9.68 7.564-1.878.76-3.847 1.572-5.875 2.412-1.01.435-2.033.867-3.071 1.31a75.83 75.83 0 00-3.072 1.458c-4.08 2.027-8.11 4.374-11.572 7.297-6.921 5.833-11.563 13.93-9.773 26.134 4.656 3.349 8.914 4.9 12.918 5.338-.698 1.53-1.057 3.04-.945 4.49 7.674 4.968 21.944-7.697 28.979-9.964 1.777-.577 5.099-1.706 8.87-2.792.907.126 1.83.309 2.766.575 1.174 4.987.04 8.23-1.792 10.859-1.817 2.631-4.26 4.703-5.789 7.227 2.69-1.138 5.751-2.247 9.013-2.834 3.25-.59 6.602-.715 9.695-.013-1.558 1.952-2.967 4.12-4.098 6.608a29.183 29.183 0 00-1.49 4 32.423 32.423 0 00-.956 4.622c.78-.652 1.669-1.379 2.66-2.153 1-.747 2.095-1.57 3.251-2.436 2.337-1.714 4.944-3.649 7.733-5.698 5.555-4.115 11.761-8.772 17.53-13.535a18.88 18.88 0 01-1.513 2.512c.374.46.737.904 1.105 1.322-2.785 2.17-6.345 3.795-8.798 5.259-7.625 4.598-16.97 9.756-22.359 17.15 9.988-2.344 19.528-6.064 28.696-10.258 3.442-1.565 7.203-3.988 11.08-6.16 2.346.807 4.69 1.103 7.022 1.18-1.25 1.16-2.228 2.005-2.402 2 3.036.274 6.265-.643 9.494-2.004 3.662.025 7.262.39 10.727 2.441.263 1.504.333 2.811.244 3.954 2.464-1.596 5.105-3.133 7.5-4.58 4.901-2.902 9.96-5.49 15.231-7.623 3.186-1.343 6.271-3.095 9.558-4.77 1.635-.831 3.31-1.656 5.048-2.388a57.098 57.098 0 015.317-1.935c3.595-1.079 7.545-1.594 12.067-1.114 2.261.24 4.666.722 7.256 1.521 2.603.802 5.213 1.86 8.117 3.297-.592.727-1.718 1.208-2.94 1.698-1.262.482-2.65.996-3.693 1.829-2.077 1.694-2.807 4.714 1.288 11.559 1.04.353 2.412.955 3.742 1.496-6.576 4.831-13.107 9.71-19.494 14.765-6.864 5.372-17.152 13.606-28.775 23.239-11.653 9.574-24.557 20.751-36.457 32.409-5.933 5.879-11.705 11.694-16.929 17.528-5.223 5.834-9.92 11.671-13.797 17.362-7.752 11.382-12.235 22.218-11.144 31.396 15.42 6.471 37.003-4.474 58.148-18.681 5.31-3.513 10.472-7.404 15.55-11.203 5.058-3.83 10.023-7.595 14.736-11.164 9.434-7.11 17.979-13.265 24.852-16.707 10.175-5.195 33.347-17.749 56.236-27.362 14.071-6.002 27.989-10.955 38.637-12.342-1.838 2.965-3.324 6.358-4.236 10.369 3.313-2.626 8.293-6.254 13.94-10.434 2.209.379 4.103 1.077 5.585 2.185a97.052 97.052 0 00-2.352 1.94c5.865-4.045 12.021-7.686 18.356-10.108a53.78 53.78 0 014.24-1.432c4.51 1.866 9.17 1.522 13.771 1.059-7.457 13.593-22.093 25.395-33.044 37.605 15.775-2.657 29.638-10.099 43.413-17.207.992.613 1.84 1.133 2.401 1.384-3.774 2.785-9.625 9.03-12.688 9.856 2.727-.538 7.468 1.101 10.554 1.547 3.037 7.391.45 11.203-3.576 13.672-2.006 1.235-4.382 2.133-6.587 2.982-2.178.854-4.15 1.678-5.457 2.705 7.429 2.267 14.626 3.009 21.441 2.603a61.024 61.024 0 006.373-.717c-4.835 3.573-9.45 6.905-13.329 9.967-29.393 23.448-65.462 50.294-85.827 82.059 2.472-1.056 4.947-2.125 7.432-3.178 2.429-1.118 4.859-2.235 7.301-3.35a559.46 559.46 0 0014.471-7.008c9.588-4.79 19.088-9.839 28.474-15.071 9.436-5.209 18.574-10.702 27.691-16.307 2.918-1.796 5.815-3.623 8.709-5.437 5.132-2.252 9.851-4.095 13.074-3.88-3.216 2.685-7.435 4.08-11.423 5.828 6.33 1.796 15.293-3.999 22.673-4.18-2.36 2.721-6.19 4.349-9.426 6.478 12.415.002 32.529-5.363 44.257-11.311-2.797 1.873-5.713 3.656-8.684 5.375l-.104-.02c-7.905-.265-15.288 4.634-20.565 10.539-5.515 2.505-11.103 4.89-16.658 7.172-13.694 5.64-41.567 13.692-48.578 25.519 12.289 2.891 31.861-9.583 45.194-10.76-1.494 3.877-8.466 6.533-12.913 9.315 5.411-2.012 12.223-4.239 17.038-4.838-4.049 2.303-7.891 4.873-11.08 7.927 7.345-3.517 21.998-10.047 35.223-16.514a40.26 40.26 0 01-2.17 1.394c4.992 4.017 18.915-2.875 26.164-2.34-2.047 4.464-10.266 6.648-15.543 8.806 2.811-.401 6.125.639 7.496.729-3.869 1.837-10.468 5.546-13.172 6.397 2.335-.677 5.614-.694 7.945-.981.281 5.592-13.082 8.476-18.603 11.088 21.212-.553 45.79-12.026 66.322-19.741 16.401-6.289 33.029-13.372 49.544-20.718 16.516-7.36 32.863-15.263 48.796-22.743 5.233-2.436 10.422-4.853 15.598-7.272 5.159-2.477 10.303-4.943 15.434-7.411 7.296-3.539 14.53-7.185 21.707-11.03-5.889 15.917-23.933 28.293-31.121 33.227-7.13 4.838-14.937 8.81-22.656 12.892-.879.458-1.761.93-2.628 1.391 3.425-.517 7.002-.467 11.011 1.118a18.316 18.316 0 01-.466 3.123c-2.118 4.342-5.482 7.539-8.408 10.992 4.216.383 8.345.804 12.177 1.521-.341 2.148-1.079 3.819-1.958 5.302 10.452 2.836 21.444 3.614 31.643 2.764l.536.314c2.767 9.89.335 15.644-3.705 19.512-.97.954-2.041 1.795-3.15 2.549.609 12.688-8.208 20.033-18.847 25.331-5.695 2.823-11.903 5.066-17.471 7.198-5.55 2.108-10.534 4.293-13.627 6.744-8.115 6.463-15.388 14.428-22.435 22.704a825.577 825.577 0 00-5.414 6.433c.027 2.054.201 4.189.518 6.431 15.077 10.829 27.166 8.277 38.66 3.823 5.746-2.22 11.35-4.911 17.057-6.627a44.187 44.187 0 014.308-1.069 36.646 36.646 0 014.42-.509 27.97 27.97 0 019.135 1.057c1.644 6.975.041 11.519-2.506 15.19-2.551 3.683-5.969 6.587-8.113 10.116 3.756-1.589 8.059-3.144 12.602-3.954 4.546-.823 9.23-1.001 13.565-.016-2.173 2.728-4.146 5.762-5.742 9.243a41.76 41.76 0 00-2.093 5.601 46.861 46.861 0 00-1.336 6.467c1.098-.917 2.336-1.93 3.72-3.01 1.406-1.049 2.925-2.199 4.55-3.411 3.259-2.407 6.922-5.104 10.804-7.963 7.781-5.742 16.46-12.263 24.52-18.938a28.847 28.847 0 01-2.103 3.523c4.063 5.113 8.161 8.049 12.249 9.716 4.113 1.686 8.236 2.133 12.32 2.209 8.182.154 16.223-1.132 23.81 3.361 2.836 15.752-9.984 16.633-17.077 20.17 4.961 1.1 13.15 8.332 15.998 10.001-2.392 1.798-5.395 4.792-8.295 7.44-2.899 2.649-5.611 5.009-7.588 5.427 3.534-.456 9.872 2.474 14.042 3.549 4.66 11.181 1.654 16.466-3.36 19.616-5.011 3.137-12.045 4.15-15.332 6.782a82.599 82.599 0 0012.615 4.271 4792.95 4792.95 0 0121.543-10.723c12.079-5.951 24.246-11.791 36.609-17.231 8.655-3.748 17.547-7.467 26.294-11.346 8.76-3.878 17.348-7.922 25.257-12.522-10.661 4.54-23.387 9.535-35.896 13.641a207.816 207.816 0 01-18.442 5.214c-5.93 1.391-11.532 2.384-16.507 2.832 5.296-3.004 13.963-6.669 20.27-10.256-5.797 2.13-10.837 2.782-13.116 1.096 2.69-1.797 5.789-3.628 9.201-5.468 3.422-1.825 7.134-3.691 11.013-5.58 7.795-3.758 16.447-7.494 25.235-11.083 8.788-3.589 17.695-7.022 25.986-10.177 8.29-3.155 15.958-6.006 22.224-8.562 22.639-9.134 45.148-18.588 67.625-28.155 22.408-9.715 44.844-19.425 67.511-28.715 6.353-2.662 12.716-5.376 19.078-8.089a2973.09 2973.09 0 0011.688-4.998l.189-.073c4.037-1.725 8.077-3.464 12.115-5.189l7.811-3.337c-11.101 9.728-82.682 48.709-80.02 66.289 6.109 14.817 39.502 4.019 45.297 2.926 5.797-1.105 57.036-22.173 61.081-20.419 4.211 1.811 15.768 5.968 24.715 15.901-2.076 1.102-4.139 2.205-6.212 3.294-7.331 3.951-14.622 7.977-21.905 12.032-7.285 4.067-14.556 8.137-21.813 12.196-7.256 4.059-14.495 8.095-21.794 11.944-12.159 6.462-24.37 12.617-36.623 18.63-1.097 15.96-14.314 15.771-21.573 18.306-7.19 2.522-15.258 4.909-22.488 9.337-6.627.926-14.172 1.711-21.568 3.372-3.763 1.776-7.556 3.559-11.348 5.343a39.156 39.156 0 014.945-.13c5.23.219 11.019 1.511 17.446 4.242-.774.842-2.149 1.425-3.639 2.054-1.514.612-3.166 1.239-4.441 2.231-2.556 1.957-3.681 5.296.45 12.457 2.53.68 6.656 2.584 8.691 2.297-2.226.521-5.371 5.901-7.709 8.208 1.866 1.071 7.517 5.681 10.558 6.374-2.9 1.772-7.914 2.577-8.408 7.541 9.984-1.146 19.798-2.323 29.02 3.32-.029 3.392-.629 6.072-1.575 8.284a30.504 30.504 0 013.774 3.456c-.335.721-.62 1.464-.86 2.255 2.039-2.146 4.165-4.249 6.278-6.288a372.268 372.268 0 016.061-5.99c3.888-3.775 7.331-7.038 9.53-9.398.368 5.851-.882 10.164-2.774 13.712 5.399 1.139 11.078-.716 15.2-2.83-1.686 4.556-6.962 7.375-3.248 16.293 7.916 2.114 13.869-1.969 20.149-5.115 6.349-3.081 13.302-4.972 23.88 1.581 4.423 12.768.129 20.809-6.449 26.529-.371.336-.767.655-1.162.973 7.116 1.549 14.22 2.651 20.039 8.033-.561 16.49-13.807 14.409-21.752 16.346 4.739 2.232 11.372 11.335 13.897 13.659-5.692 2.514-15.027 9.305-19.299 9.221 2.329.239 5.46 2.054 8.467 3.887.587-.189 1.161-.38 1.746-.555 3.618-1.129 7.393-1.716 13.006 2.145-2.963 2.408-6.74 3.817-7.366 8.986 7.079 3.295 12.285-3.621 18.382-8.19 5.192-3.831 10.964-6.195 19.432.549 12.626-2.763 24.483-4.859 31.757-8.133 26.974-12.112 51.689-30.933 76.765-45.846 16.63-9.887 33.72-17.531 50.87-24.776 11.14 1.291 24.39-.197 37.76-3.243 4.05-.901 8.09-1.95 12.14-3.041 6.69-.457 13.52-.752 20.57-.616 3.83.028 8.63.532 13.78.859 5.2.28 10.82.316 16.11-.412 5.38-.832 10.45-2.462 14.55-5.524 3.39-2.558 6.09-6.08 7.69-10.827 6.41-.372 14.67-.838 23.91-1.218 13.06-.619 28.09-1.095 42.68-.842 2.65.041 5.27.104 7.87.178 3.76 2.039 7.78 4.771 14.25 15.125 6.37 23.383-2.18 21.032-5.86 23.147-6.03 3.543-13.53 6.397-14.53 23.185 5.32 3.835 10.27 6.308 14.97 7.885 4.69 1.575 9.11 2.09 13.37 2.252 6.94.21 12.26-11.066 23.43 1.755-1.26.321-4.64 13.584-5.37 12.641.14.188.28.363.41.535-6.2 3.322-12.71 6.844-19.63 11.182-4.25 2.657-8.05 5.907-10.8 10.026-25.21 7.449-49.75 16.556-69.97 29.18 25.45.428 51.13-.815 76.89-3.216 6.45 1.63 12.31.279 17.98-1.685.24-.077.47-.169.72-.258 8.62-.992 17.25-2.09 25.88-3.295 1.66 9.902-5.26 12.931-8.5 18.025 5.72-2.226 13.28-4.113 19.77-2.45-3.33 4.094-6.03 9.111-7.16 16.087 3.39-2.667 8.61-6.358 14.5-10.614 2.95-2.127 6.05-4.402 9.2-6.748 3.2-2.284 6.44-4.642 9.55-7.049-.5.92-1.06 1.774-1.67 2.592 12.05 15.961 24.94 5.603 36.27 12.779 1.96 12.047-7.68 12.433-13.05 14.965 3.72.94 9.8 6.625 11.92 7.959-3.63 2.621-9.16 8.845-12.18 9.369 2.7-.246 7.52 2.175 10.61 3.08 3.41 8.619 1.02 12.534-2.86 14.774-1.94 1.112-4.25 1.807-6.41 2.475-2.11.691-4.06 1.344-5.31 2.328 7.56 3.477 14.75 5.215 21.53 5.652 6.77.434 13.14-.418 19.23-1.955 12.16-3.078 23.15-8.959 33.75-12.741 17.21-5.803 33.87-13.851 50.12-22.824 4.07-2.272 8.13-4.546 12.19-6.805 4.09-2.282 8.14-4.598 12.17-6.932 8.06-4.667 16.03-9.417 23.91-14.05 5.15-3.03 10.34-5.905 15.54-8.751 5.27-2.793 10.52-5.577 15.7-8.493 10.36-5.848 20.45-12.272 29.85-20.549 7.51-6.694 14.92-14.176 22.44-21.448 2.63-.704 5.26-1.394 7.88-2.098 8.91-2.395 17.81-4.79 26.74-7.196 3.65-.96 7.27-1.979 10.9-2.998-4.57 3.447-9.5 6.653-13.35 9.99 12.46-5.449 28.27-11.469 40.17-12.465-8.76 6.774-16.83 14.445-22.97 23.885 8.21-5.041 20.57-12.263 34.56-20.503 7-4.12 14.4-8.504 21.88-13.006 3.89-2.428 7.79-4.879 11.67-7.348-4.67 4.588-9.33 9.313-14.08 13.941-7.23 7.151-14.82 13.764-23.05 18.829-3.16 1.928-7.97 3.283-13.47 4.524-5.49 1.241-11.6 2.479-17.28 4.361-2.85.947-5.59 2.061-8.07 3.411-2.51 1.332-4.81 2.905-6.72 4.818-3.75 3.733-6.1 8.748-6.11 15.66 1.99.769 4.1 1.534 5.43 1.388-.63.127-1.36.599-2.16 1.275 5.82 2.997 11.55 2.041 17.13 8.524-2.02 1.665-3.77 6.196-5.97 7.651 3.79-.125 8.04-.707 12.23-.383-1.57 5.319-6.34 6.656-8.17 12.884 4.4 1.615 9.3 2.867 14.26 4.154l.36-.297c2.32-1.987 4.62-3.911 6.79-5.708 4.36-3.595 8.2-6.704 10.68-8.958-.31 5.819-2.06 10.028-4.37 13.471 5.31 1.326 11.22-.297 15.6-2.243-2.21 4.461-7.83 7.04-5.11 15.992 7.72 2.401 14.11-1.426 20.77-4.246 6.73-2.782 13.91-4.349 23.68 2.609 2.93 12.831-2.24 20.562-9.42 25.889-3.57 2.701-7.74 4.645-11.65 6.394-3.91 1.734-7.58 3.23-10.31 4.833-6.28 3.807-12.67 7.66-18.31 12.664-2.83 2.486-5.49 5.233-7.91 8.334-.26.329-.51.674-.76 1.005 2.36.891 4.52 2.017 6.35 3.444 2.23-.521 4.58-.883 7.07-1.034 7.94-.51 16.9.961 24.92 4.576-1.73 3.592-4.87 5.428-4.85 10.998 4.68 1.952 8.33.586 12.01-.369 3.69-.953 7.5-1.346 12.66 2.702-3.18 2.235-7.06 3.422-8.16 8.476 6.67 3.53 12.49-2.976 18.96-7.179 6.5-4.144 13.6-6.25 23.41 6.253-2.48 2.159-4.99 4.287-7.54 6.311a433.038 433.038 0 01-7.78 5.919c-5.24 3.876-10.48 7.74-15.72 11.617-10.52 7.598-20.78 15.769-30.23 25.344-1.08 1.122-2.15 2.273-3.23 3.424 5.1-.817 10.13-1.902 15.08-3.109 11.43-2.726 24.05-14.442 38.07-8.969-2.19.838-12.15 13.176-13.01 12.721 12.42 6.594 24.74-2.668 35.96-5.11 20.08-4.145 39.84-10.437 60.01-15.522 7.92-2.049 15.7-4.421 23.41-6.969 7.7-2.563 15.26-5.447 22.86-8.271l11.39-4.257 11.39-4.325a496.424 496.424 0 0123.17-8.01c8.65-2.833 21.65-5.649 33.41-10.554 11.7-5.009 22.23-11.863 25.78-22.44-4.52-5.858-9.36-7.784-13.33-6.572 2.85-4.491 8.17-7.625 10.52-11.454-5.02-2.391-10.05-3.812-14.99-4.571-4.96-.778-9.82-.834-14.49-.37-4.65.466-9.11 1.441-13.22 2.721-4.12 1.292-7.93 2.884-11.33 4.498 3.68-5.498 8.61-9.297 13.95-12.427 5.34-3.157 11.06-5.734 16.15-9.059 3.72-2.511 7.24-5.328 10.65-8.328a260.416 260.416 0 0030.35-8.553c9.48-3.208 18.65-6.902 27.79-10.762 7.36-6.266 19.75-12.266 32.93-17.786 1.38-.581 2.8-1.144 4.2-1.723a71.027 71.027 0 015.28-2.13c5.35-2.117 10.65-4.164 15.61-6.084 1.97-.769 3.89-1.522 5.75-2.246 1.84-.755 3.6-1.536 5.27-2.267 3.34-1.476 6.35-2.865 8.85-4.158 13.07-6.767 25.95-14.214 38.71-21.764 6.37-3.791 12.74-7.581 19.1-11.361 3.17-1.883 6.34-3.769 9.5-5.655 3.14-1.917 6.28-3.849 9.4-5.755 14.36-8.672 28.86-16.658 43.5-24.471 7.33-3.871 14.67-7.739 22.03-11.631 7.37-3.863 14.62-8.045 21.96-12.142 22.39-12.59 45.42-25.56 68.44-38.507 14.89-8.6 29.88-17.064 44.8-25.202-.43.205-.87.393-1.29.6-6.38 3.034-12.36 6.249-17.69 9.448 6.53-7.873 14.67-13.966 23.19-19.801 4.27-2.883 8.66-5.636 12.99-8.398 4.32-2.833 8.6-5.714 12.69-8.738 23.43-17.399 43.23-39.737 63.43-61.22 4.51-4.671 9.01-9.345 13.52-14.003 4.53-4.669 9.15-9.102 13.72-13.723 4.56-4.622 9.16-9.183 13.79-13.697l3.46-3.381 3.42-3.484 6.87-6.921c9.25-9.057 18.13-18.736 27.09-28.184 8.67-9.906 17.44-19.591 25.42-30.204-6.97-4.149-13.23-3.925-19.03-1.229-5.89 2.585-11.4 7.545-16.69 13.177a213.53 213.53 0 00-3.95 4.304c-1.34 1.412-2.66 2.827-3.98 4.215-2.64 2.791-5.24 5.507-7.84 7.889-2.58 2.396-5.13 4.475-7.69 5.974-2.58 1.44-5.15 2.344-7.69 2.444 2.71-7.415 8.96-12.186 14.31-17.7-3.79-.63-7.21-.043-10.4 1.217-3.21 1.244-6.18 3.233-9.25 5.217-6.08 4.019-12.08 8.673-19.22 9.654.9-7.329 6.16-12.174 9.5-18.165-6.11.658-12.65 2.207-19.22 4.409-3.27 1.125-6.64 2.312-9.96 3.631a135.65 135.65 0 00-9.82 4.37c-3.23 1.564-6.32 3.288-9.37 5.005a127.078 127.078 0 00-8.78 5.345c-2.76 1.851-5.37 3.772-7.75 5.734a88.662 88.662 0 00-3.41 2.958c-1.1.972-2.14 1.94-3.12 2.933 15.48-24.602 37.06-44.336 57.77-63.799 2.21-2.115 4.78-4.366 7.59-6.761 2.79-2.413 5.92-4.857 8.91-7.65 3.04-2.745 6.19-5.631 9.3-8.619 3.1-3.003 6.19-6.073 8.91-9.429 2.77-3.307 5.36-6.713 7.63-10.179a77.192 77.192 0 003.15-5.245c.92-1.785 1.7-3.623 2.38-5.451 2.75-7.301 3.64-14.713 1.6-21.988-7.01-.332-13.06 1.55-18.56 4.705-2.78 1.566-5.3 3.516-7.93 5.539-.48.372-.94.772-1.41 1.144.17.072.35.119.53.191-.39 1.21-1.68 2.24-2.14 3.706 1.04-.443 2.56.079 4.32 1.83-.41 6.637-9.69 9.22-14.12 11.331-4.02 1.918-7.68 4.199-11.52 6.405-3.83 2.221-7.67 4.414-11.81 6.242-5.25 2.312-10.23 5.064-15.47 7.242-2.9 1.247-5.54 4.698-9.73 3.173.22.082 1.38-2.685 2.11-3.939-1.95 1.744-3.88 3.519-5.83 5.305-2.16 1.935-4.36 3.796-6.57 5.682-2.22 1.871-4.45 3.726-6.73 5.504-2.28 1.792-4.6 3.55-7.05 5.068-3.39 2.167-7.04 4.126-10.56 6.256-1.75 1.066-3.47 2.18-5.11 3.389-1.64 1.167-3.22 2.414-4.66 3.807 4.42-2.248 9.71-4.849 15.22-6.655 5.5-1.834 11.26-2.825 16.35-2.523-.92.99-2.24 2.082-3.63 3.134-1.4 1.052-2.82 2.151-3.96 3.318 2.46-1.113 4.99-1.038 6.84.716-3.46 4.918-10.45 9.417-17.87 13.258-7.49 3.639-15.41 6.658-20.84 9.019-19.66 8.184-38.6 17.364-58.5 24.155-12.62 4.287-25.19 8.934-37.73 12.671-7.02 2.176-15.53 6.962-22.2 5.778.46.083 7.95-5.672 9.38-6.218-6.59-.522-14.08 3.587-20.63 6.2 3.72-3.2 7.43-6.387 11.17-9.569 17.73-15.169 35.7-29.596 54.56-42.334 3.62-2.436 8.07-4.935 13.11-7.514 5.03-2.581 10.66-5.254 16.62-7.933 11.91-5.402 25.14-11.209 37.63-17.662 6.26-3.22 12.32-6.607 17.97-10.168 5.65-3.477 10.88-7.141 15.42-11.024 9.09-7.781 15.46-16.45 17.12-26.256-13.09-3.468-28.18 4.842-40-1.48 4.65-3.595 9.48-10.957 14.48-14.393-7.98 2.633-16.98 6.155-25.64 8.421 4.66-8.324 14.95-13.242 20.35-22.98-7.8.536-16.51 1.727-25.38 2.982l12.11-7.992a1899.952 1899.952 0 0133.05-21.119 2549.799 2549.799 0 0133.38-20.479l16.95-10.139 17.12-10.12 34.32-20.104 17.16-10.03 4.29-2.514 2.15-1.251 1.07-.626 1.13-.71 8.91-5.574c9.71-6.13 20.43-12.586 31.66-19.446 11.27-6.869 23.09-14.16 35.31-22.161-4.52-4.28-9.73-6.626-15.34-7.642-2.83-.492-5.77-.627-8.81-.431-3 .136-6.11.59-9.3 1.312-12.69 2.818-26.41 9.479-39.31 16.909-3.27 1.866-6.33 3.758-9.5 5.683-3.54 2.207-7.09 4.4-10.59 6.574-1.26.738-2.52 1.465-3.77 2.192.65-2.428.96-4.839.86-7.2-9.55-6.528-23.02-3.824-37.08 2.046-19.1 5.361-39.27 17.982-58.7 18.834 6.89-11.971 20.27-19.26 30.91-28.763-23.74.439-53.62 6.72-82.46 16.17-.64.207-1.25.417-1.89.625-3.72-.293-7.49.388-11.14 1.944 3.77-4.538 8.77-8.689 13.64-12.648 4.9-4.032 9.66-7.876 12.88-11.707-3.6-.729-7.26-1.225-10.95-1.539 25.11-15.689 51.13-30.079 76.96-43.883 5.91-3.16 12.63-6.495 19.91-10.024 1.82-.88 3.67-1.78 5.57-2.686 1.87-.908 3.72-1.918 5.62-2.889 3.76-1.978 7.74-3.984 11.79-6.045 16.16-8.193 33.54-16.755 49.69-26.46 16.13-9.696 31.06-20.567 41.89-32.637 4.76-5.273 8.71-10.763 11.64-16.33-6.32 2.586-12.67 5.073-19.06 7.364-11.51 4.209-23.26 15.529-36.99 10.92.95.323 9.97-13.711 12.18-14.923-15.28-3.223-27.22 10.625-38.79 15.319-7.15 2.921-14.45 5.611-22.03 7.696-7.58 2.073-15.44 3.567-23.68 4.212.27-.693.55-1.369.85-2.029-3.13 1.043-6.28 2.042-9.35 2.839-.82.214-1.7.456-2.46.614-.76.157-1.5.317-2.24.464-1.5.292-2.97.533-4.44.723.22-2.105.75-4.136 1.54-6.094.42-.987.81-1.913 1.44-2.903a36.29 36.29 0 012.09-2.959c1.52-1.946 3.27-3.861 5.18-5.722 1.87-1.813 3.91-3.595 6.03-5.348 8.46-6.938 18.26-13.147 25.17-19.25-1.77.874-3.62 1.774-5.53 2.678 8.12-6.785 16.28-13.576 24.44-20.396-13.76-4.791-21.88 3.666-35.52-.43 4.01-5.274 10.01-9.335 11.63-16.735-6.45-4.095-11.83-3.196-16.44-.984.3-.228.59-.443.89-.645-4.93-6.135-14.78-7.243-24.44-6.618-9.68.595-19.16 2.939-23.34 3.817-11.18 2.381-29.74 25.932-45.96 10.929-.97-3.399-1.15-6.735-.76-9.992 2.06-1.2 4.12-2.398 6.16-3.6 9.8-5.764 19.42-11.545 29.09-17.385 12.61-7.605 25.42-14.432 37.87-21.879 12.51-7.556 24.72-15.841 35.97-26.069 4.92-4.488 9.71-9.215 14.48-14.109 3.48-3.607 6.97-7.238 10.46-10.858-1.67-.184-3.3-.39-4.87-.651 1.38-6.863 6.6-9.18 7.8-15.052-4.75.476-9.48 1.897-13.77 2.768 2.34-1.956 3.84-7.032 5.93-9.168-8.31-6.771-15.79-2.482-24.32-7.189-1.81-14.999 8.75-23.479 21.27-29.658 6.28-3.079 13.13-5.542 19.25-7.896 6.13-2.351 11.46-4.635 14.88-7.243 8.87-6.849 16.89-15.216 24.49-24.011 5.98-6.894 11.86-13.93 17.81-20.628-5.84-1.18-12.08-1.989-18.36-2.873-7.41-1.131-14.81-2.408-21.48-4.578 4.36-3.203 8.99-5.977 13.79-8.508 4.77-2.6 9.69-5 14.64-7.353 9.89-4.694 19.89-9.246 28.99-15.191 3.09-2.049 7.78-5.001 12.84-9.073 5.07-4.03 10.58-8.935 15.37-14.539 9.6-11.219 16.32-25.203 11.13-40.539-3.93-3.7-7.85-5.701-11.69-6.485 3.74-1.848 7.4-4.02 10.93-6.661 15.62-11.636 1.05-12.329-9.15-15.374-10.26 5.542-20.61 10.825-31.31 15.48-18.77 8.159-36.88 17.382-55.29 25.094a37.095 37.095 0 01-3.56-1.098c.36-.661.77-1.247 1.19-1.816-.31.117-.63.234-.95.351-7.42 2.533-15.19 4.53-23.46 5.68 1.8-7.003 5.39-12.705 9.8-17.611-4.58 1.047-9.3 1.595-14.78-.557.07-1.174.25-2.233.47-3.216 2.75-5.601 7.56-9.328 10.96-14.054-1.26-.516-2.49-.902-3.67-1.24-13.49-5.404-28.58-7.095-42.29-6l-.56-.332c-2.91-10.2-.39-16.126 3.83-20.096 4.16-4.034 10.04-6.137 13.88-8.572 4.55-2.885 9.48-5.888 14.17-9.395-5.79-2.977-13.8-3.1-21.62-2.082-9.94 1.33-19.56 4.482-23.83 5.707-2.86.822-6.06 3.052-9.54 5.702-3.46 2.694-7.19 5.811-11.14 8.401-7.9 5.167-16.68 8.165-25.98 1.281-4.93-12.066.4-24.39 8.29-34.763 3.94-5.208 8.54-9.837 12.79-13.679 4.25-3.856 8.15-6.942 10.73-8.988 7.61-6.043 16.06-10.935 24.41-15.94 4.78-2.868 9.54-5.796 14.08-8.952-.1-3.334.65-6.027 1.86-8.34-9.78-.568-20.32.165-29.42-.63.95-6.997 6.1-9.718 6.96-15.72-2.44.428-4.86 1.104-7.21 1.817-7.63 5.568-15.95 11.763-23.72 18.101a29.511 29.511 0 012.2-3.626c-4.26-5.271-8.54-8.309-12.82-10.051-4.29-1.745-8.61-2.215-12.88-2.311-8.54-.18-16.95 1.133-24.89-3.519-3-16.241 10.38-17.113 17.79-20.74-5.2-1.143-13.76-8.619-16.74-10.353 2.49-1.847 5.62-4.926 8.65-7.644 3.02-2.721 5.84-5.142 7.91-5.57-3.69.454-10.31-2.581-14.67-3.692-4.89-11.534-1.77-16.971 3.45-20.205 5.23-3.232 12.58-4.242 16-6.956-10.66-4.518-20.52-6.518-29.78-6.791-4.61-.117-9.17.137-13.62.722-4.43.588-8.74 1.508-12.94 2.664-16.82 4.608-31.82 13.002-46.81 18.39-11.88 4.343-23.53 9.429-35.05 15.05-11.7 5.575-23.23 11.681-34.6 18.086a1610.044 1610.044 0 00-34.04 19.899c-11.29 6.863-22.49 13.676-33.53 20.383-14.63 8.799-29.59 16.74-43.94 25.305a373.71 373.71 0 00-11.69 7.25c-2.19-1.104-4.3-2.353-6.2-3.808 3.58-4.357 8.65-4.653 13.26-6.245-5.69-8.109-11.3-9.151-16.97-9.371-5.67-.192-11.39.509-17.4-4.193.27-1.068.61-2.004.98-2.866 3.35-4.507 8.1-6.829 11.88-10.368a26.995 26.995 0 00-2.88-2.053c-10.4-8.271-23.06-13.506-35.03-15.489l-.41-.44c-.08-.998-.09-1.944-.08-2.844-15.66 9.229-31.4 18.321-47.36 27.037-25.39 13.857-50.87 28.171-76.16 41.414-14.18 7.52-32 19.303-44.66 22.506.88-.217 16.98-12.519 19.92-14.203-14.97 4.677-34.16 18.151-48.86 25.952-18.13 9.705-36.57 19.017-55.17 26.966 12.95-11.412 31.76-22.3 47.39-31.682 9.6-5.732 26.66-14.286 29.12-21.936-14.03 2.169-28.04 12.173-42.38 16.076 6.81-4.923 15.24-9.979 20.42-15.134-5.16.373-11.47 3.286-17.56 6.656.44-.27.87-.529 1.28-.777-2.58-1.512-12.9 2.187-23.83 6.84-10.93 4.638-22.49 10.239-27.51 12.62-13.47 6.396-44.67 28.609-55.87 26.942 3.34-11.315 48.4-38.209 63.19-47.099 10.91-6.514 22.07-12.754 33.21-19.025 11.15-6.271 22.25-12.563 32.92-19.31-10.98 3.455-26 9.714-37.27 13.522 4.61-4.626 11.25-8.246 15.22-12.22-5.28 2.333-10.98 5.221-15.96 7.582 3.39-2.167 7.32-5.799 10.55-7.97-5.75-.395-15.71 5.379-22.68 6.31 9.99-16.053 60.72-38.481 80.17-50.843 12.7-8.046 25.27-16.589 37.61-25.39 12.34-8.774 24.67-17.55 36.85-26.203 13.98-9.835 28.15-19.053 42.25-28.353 7.09-4.603 14.19-9.203 21.3-13.814 7.1-4.642 14.16-9.369 21.26-14.117a3113.31 3113.31 0 0016.9-11.415c-.81.336-1.63.684-2.48 1.028-4.35 1.816-8.96 3.732-13.61 5.79a418.522 418.522 0 00-13.93 6.528c.87-1.041 1.8-2.002 2.79-2.899-10.92-23.572-30.18-13.67-42.93-25.608.58-16.001 13.25-14.011 20.86-15.918-4.54-2.154-10.86-10.984-13.27-13.219 5.46-2.463 14.41-9.069 18.49-8.993-3.57-.359-9.14-4.684-12.95-6.611-2-11.946 2.31-16.398 8.08-18.317 2.89-.966 6.14-1.285 9.16-1.606 3.02-.281 5.81-.552 7.76-1.446-8.94-6.669-17.89-10.631-26.73-12.835-8.86-2.205-17.62-2.642-26.2-2.114-8.58.526-17.02 2.185-25.21 3.916-4.91 1.053-9.72 2.137-14.45 3.143 2.78-2.522 5.58-5.042 8.35-7.579l3.6-3.328 3.53-3.465 6.97-6.983c-6.42-4.938-12.67-5.453-18.74-3.454-3.02 1.036-6.1 2.533-9.11 4.487-3.03 1.938-6.02 4.273-8.97 6.764-2.97 2.46-5.85 5.207-8.81 7.657-2.94 2.493-5.84 4.898-8.68 7.004-5.71 4.183-11.1 7.21-16.22 6.835 1.76-3.559 4.27-6.412 7.15-8.943 2.87-2.534 6.07-4.764 9.04-7.224-7.43-2.038-13.87.864-20.29 4.403-6.51 3.387-13.03 7.406-20.28 7.653 1.7-7.196 7.5-11.482 11.51-17.123-6.19.051-12.91.932-19.75 2.48-3.43.759-6.85 1.749-10.33 2.74a143.963 143.963 0 00-10.33 3.414c-13.5 5.164-26.3 11.656-34.79 19.006 18.06-23.184 41.81-40.968 64.78-58.371 9.91-7.427 25.8-16.937 38.65-28.839 3.19-2.986 6.22-6.097 8.93-9.305 1.35-1.613 2.66-3.219 3.82-4.894a67.103 67.103 0 003.11-5.169c3.73-6.974 5.64-14.264 4.61-21.799-6.96-1.157-13.3.051-19.26 2.595-3 1.269-5.86 2.901-8.73 4.693-2.9 1.744-5.76 3.7-8.58 5.729-5.64 4.06-11.11 8.502-16.88 11.916-5.71 3.468-11.42 6.221-17.3 7.068-2.11-9.958 7.42-16.916 12.05-24.085-3.73 2.63-8.06 5.421-12.46 7.74-4.41 2.319-8.84 4.227-13.01 4.904 2.37-2.867 4.41-6.037 6.16-9.396 1.74-3.361 3.15-6.943 4.08-10.817-4.51 4.442-11.17 11.051-19.26 18.153-1.99 1.805-4.04 3.665-6.14 5.558-2.1 1.892-4.19 3.867-6.41 5.764-4.4 3.83-8.84 7.759-13.14 11.673a40.886 40.886 0 012.44-3.448c-3.48-2.714-7.2-3.706-11.02-3.721-3.84-.031-7.88.844-11.87 2.025-4.01 1.179-8 2.615-11.87 3.604-3.83 1.007-7.7 1.43-11.16.767-.83-11.286 11.59-15.811 18.9-20.644-4.74.626-11.94-2.57-14.53-3.044 2.49-2.091 5.7-5.275 8.77-8.163 3.04-2.919 5.84-5.6 7.79-6.523-3.47 1.425-9.23 1.137-13.17 1.477-3.41-7.243-.11-12.259 4.94-16.185 2.51-1.966 5.48-3.666 8.24-5.266 2.77-1.58 5.18-3.16 6.82-4.69-18.49-.32-35.12 5.46-50.89 13.392-3.91 1.992-7.94 4.016-11.79 6.18-3.88 2.131-7.64 4.393-11.45 6.565-3.82 2.182-7.61 4.33-11.32 6.44-3.71 2.095-7.33 4.167-11.05 5.991-23.27 11.942-47.16 25.227-71.35 38.928-4.14 2.34-8.29 4.691-12.44 7.043a18.74 18.74 0 01-4.56-1.026c1.78-.899 8.39-13.139 9.2-12.733-5.98-2.946-11.26-2.054-16.21-.106-2.47.988-4.89 2.202-7.23 3.377-2.32 1.192-4.62 2.292-6.94 2.957-16.56 4.765-32.57 11.246-49.19 16.376-.08.027-.16.052-.23.079 2.78-3.762 4.24-8.44 3.56-14.348-6.96-4.378-12.99-1.038-19.69-7.214 1.69-1.725 2.88-5.996 4.76-7.565-3.44.541-7.25 1.54-11.06 1.717.95-4.961 5.14-6.686 6.18-12.465-4.56-1.067-9.62-1.687-14.67-2.398-5.06-.767-10.12-1.642-14.68-3.128 3-2.226 6.17-4.151 9.44-5.921 3.27-1.812 6.64-3.486 10.03-5.115 6.77-3.271 13.62-6.448 19.86-10.587 2.11-1.433 5.33-3.483 8.79-6.312 3.48-2.799 7.25-6.218 10.54-10.115 6.58-7.792 11.2-17.502 7.68-28.132-9.45-9.01-18.71-3.39-26.55 1.9-6.34-4.99-11.99-4.18-17.29-1.53-5.33 2.57-10.36 6.95-15.32 9.21-3.26-.21-6.46-.75-9.32-1.8 2.11-3.86 5.98-5.17 9.31-7.3-11.36-8.99-17.95 1.87-28.57-2.32.05-.81.18-1.55.33-2.23 1.9-3.89 5.19-6.48 7.52-9.77-.87-.35-1.69-.62-2.51-.85-9.23-3.73-19.54-4.87-28.92-4.08l-.38-.24c-1.97-7.07-.24-11.17 2.66-13.94 2.86-2.81 6.88-4.28 9.51-5.98 4.77-3.07 10.12-6.31 14.58-10.72 1.87-.76 3.85-1.57 5.88-2.41 1.01-.44 2.03-.87 3.07-1.31 1.03-.46 2.05-.96 3.07-1.46 4.08-2.03 8.11-4.38 11.57-7.3 6.92-5.83 11.57-13.93 9.78-26.13-10.78-7.75-19.42-5.91-27.63-2.74-4.11 1.59-8.12 3.51-12.2 4.73-1.02.29-2.04.56-3.08.76-1.04.19-2.1.32-3.16.37-2.14.09-4.3-.12-6.52-.76-1.18-4.98-.04-8.23 1.79-10.86 1.82-2.63 4.26-4.7 5.79-7.22-2.69 1.14-5.75 2.24-9.01 2.82-3.25.59-6.61.71-9.7.01 1.56-1.95 2.97-4.12 4.1-6.61.57-1.24 1.08-2.57 1.49-4 .41-1.43.73-2.97.96-4.62-.78.65-1.67 1.38-2.66 2.16-1.01.75-2.1 1.57-3.26 2.43-2.33 1.72-4.94 3.65-7.71 5.7-5.56 4.12-11.76 8.76-17.53 13.52.44-.89.95-1.72 1.51-2.51-2.9-3.65-5.83-5.75-8.75-6.94-2.94-1.2-5.9-1.53-8.81-1.58-5.85-.12-11.6.81-17.02-2.4-2.03-11.26 7.13-11.89 12.21-14.42-3.55-.78-9.4-5.94-11.45-7.14 1.71-1.28 3.86-3.43 5.94-5.31 2.07-1.9 4-3.58 5.43-3.87-2.53.33-7.05-1.77-10.03-2.55-3.33-7.99-1.19-11.76 2.39-14 3.58-2.25 8.61-2.97 10.96-4.85-7.27-3.12-14.03-4.49-20.36-4.66a58.4 58.4 0 00-9.3.53c-3.03.41-5.98 1.07-8.87 1.88-11.51 3.22-21.79 9.07-32.05 12.83-8.14 3.04-16.11 6.59-24 10.51-8.02 3.87-15.9 8.13-23.71 12.6-7.74 4.48-15.6 9.13-23.33 13.86-7.72 4.78-15.42 9.51-22.97 14.19-6.34 3.88-12.75 7.51-19.11 11.17-3.54 1.47-7.05 2.6-10.52 3.26-.57-10.74 12.13-19 19.1-27.21-9.9 6.27-22.66 13.37-32.65 15.7 6.58-6.85 12.45-14.37 16.38-23.1-6.3 5.29-15.83 12.92-26.63 21.65-5.42 4.35-11.07 9.05-16.94 13.72-5.88 4.64-11.84 9.4-17.6 14.11a63.92 63.92 0 013.48-4.01c-7.42-5.19-17.12-2.78-27.03.83-9.9 3.62-19.98 8.45-28.27 7.89.53-12.2 16.29-18.97 25.83-25.29-5.79 1.32-13.99-1.21-17.05-1.35 6.71-5.34 17.58-15.97 22.66-18.52-4.47 2.03-11.6 2.38-16.39 3.36-2.97-7.61 2.11-13.61 9.13-18.67 3.51-2.52 7.51-4.82 11.22-6.95 3.7-2.14 7.03-4.23 9.38-6.17-11.24 1.08-22.55 3.65-33.45 7.58-10.93 3.9-21.62 9.01-32.02 14.72-10.48 5.65-20.87 11.74-30.86 17.89-5 3.08-9.94 6.13-14.78 9.11-4.88 2.96-9.58 5.91-14.38 8.55-29.58 16.89-59.36 35.48-89.02 54.51.08-3.08-.27-6.1-1.15-9.01-15.496-8.91-33.314 1.71-49.36 13.85 11.252-10.1 19.504-20.25 22.508-29.63-7.159.88-15.206 4.55-23 7.72-7.804 3.15-15.346 5.9-21.485 4.98 2.816-2.35 5.808-5.57 8.835-8.84 3.025-3.26 6.082-6.47 9.058-8.88-4.555 2.56-9.471 5.32-14.435 8.13a312.261 312.261 0 01-14.949 7.85c6.239-8.87 18.199-16.59 25.244-27.13-21.428 7.9-49.314 20.27-70.309 25.96 18.786-13.69 38.406-26.73 57.941-40.24 19.533-13.51 38.995-27.51 57.259-42.99 6.208-5.25 15.523-13.27 25.783-23.04 2.55-2.48 5.18-5.01 7.86-7.61 2.65-2.64 5.31-5.41 7.99-8.19 5.38-5.53 10.6-11.55 15.68-17.45 9.98-12.07 18.92-24.38 24.71-35.57 1.46-2.77 2.75-5.45 3.84-8 1.05-2.59 1.9-5.07 2.53-7.39 1.25-4.64 1.62-8.67.89-11.9-3.13.06-6.47 1.03-9.95 2.71-3.49 1.68-7.08 4.12-10.9 6.93-3.82 2.81-7.63 6.24-11.65 9.81-4.04 3.57-8.01 7.58-12.15 11.52-16.31 16-33.22 33.38-44.57 41-2.073 1.45-4.907 3.31-8.196 5.51-3.312 2.18-7.071 4.74-11.264 7.31-4.183 2.59-8.635 5.4-13.307 8.08-4.685 2.69-9.474 5.42-14.272 7.91-19.171 10.07-37.973 17.1-44.069 13.15.675-.52 1.382-1.07 2.093-1.64-5.119 3.51-10.468 6.65-15.808 8.94-5.315 2.29-10.661 3.66-15.755 3.57 7.575-11.08 21.472-21.49 32.023-31.97-6.578 1.76-12.909 4.3-19.064 7.29-6.235 2.89-12.252 6.22-18.4 9.31-6.125 3.11-12.251 6.08-18.593 8.32-6.294 2.27-12.783 3.84-19.521 4.19.045-.76.213-1.52.351-2.28 10.683-8.77 19.142-17.99 22.965-27.06 3.899-2.88 7.865-5.68 11.638-8.32 3.787-2.63 7.381-5.1 10.405-7.4 12.592-9.4 26.173-19.86 38.558-31.15a227.61 227.61 0 0017.373-17.53c5.214-6.08 9.993-12.21 13.747-18.55-29.221 17.22-58.426 35.91-87.971 54.68-10.873 6.87-23.015 16.1-35.747 24.72-12.741 8.6-25.947 16.65-38.681 21.17a92.92 92.92 0 003.697-3.17c-2.509 1.48-5.166 3.03-7.912 4.54-1.17.35-2.329.72-3.497.99 2.484-1.56 10.238-8.4 17.395-14.93 7.21-6.52 13.848-12.72 14.652-12.84-11.583 2-24.647 8.62-37.93 16.42-13.332 7.78-26.904 16.72-39.4 23.26-17.858 9.37-35.961 19.06-54.248 28.94-9.176 3.86-18.426 7.99-25.372 8.67 1.569-5.17 6.704-9.72 12.803-13.79 6.068-4.04 13.145-7.64 18.528-10.9-5.99 1.87-13.589.89-16.609 1.19 7.93-5.38 21.108-15.7 26.663-18.49-4.838 2.26-11.957 3.52-16.945 4.99-2.328-11.92 25.659-22.79 36.544-30.39-22.62 4.41-46.347 14.84-70.147 27.5-9.547 5.09-19.093 10.53-28.524 16.08 2.13-2.28 4.171-4.66 6.108-7.13 2.009-2.57.982-6.96-2.703-7.45-18.773-2.45-32.565 18.33-45.001 28.72-1.735 1.45-2.14 3.29-1.686 4.85-1.439 1.96-.876 4.84.828 6.36-.211.12-.425.26-.636.38.334-.06.638-.1.955-.14 1.047.76 2.45 1.05 4.076.42-.863.66-1.698 1.32-2.478 1.97 1.375-.88 2.78-1.78 4.173-2.69 12.119-5.06 22.942-12.18 32.22-21.08 1.426-.94 2.731-1.8 3.881-2.56-3.517 4.03-7.835 7.72-12.412 11.21 5.608-1.91 13.433-6.05 19.639-9.6-5.012 4.09-13.006 8.72-14.483 13.16 15.59-4.8 37.664-23.05 52.422-23.4-7.318 14.16-39.637 30.13-55.36 39.7-2.277 1.39-4.572 2.8-6.864 4.2a1397.41 1397.41 0 00-6.938 4.16 537.317 537.317 0 00-13.735 8.58c-6.871 4.45-13.546 9.09-19.867 13.93-13.173-.57-24.362 5.45-31.263 17.04-.45.77-.575 1.59-.477 2.38-4.172 1.28-8.535 1.99-13.172 1.77-5.95-.27-5.052 8.79.842 9.07 19.493.88 34.768-12.49 50.529-21.61 3.499-2.02 2.02-7.62-1.821-8.22a47.72 47.72 0 00-3.061-.36c13.686-7.8 32.17-15.59 44.549-18.18-3.725 3.03-8.201 5.68-10.862 9.08 4.392-1.01 9.191-3.58 13.822-5.9 4.589-2.37 9.042-4.46 12.845-4.39-4.604 2.9-9.474 5.57-13.141 9.17 11.597-1.93 37.983-27.21 47.075-20.42-7.492 4.97-15.008 9.86-22.559 14.71l-11.312 7.28c-3.763 2.44-7.54 4.87-11.365 7.2-15.243 9.45-30.414 19.03-45.271 29.24-4.19 2.93-8.393 5.85-12.599 8.78-4.205 2.94-8.483 5.75-12.742 8.61-8.539 5.68-17.165 11.25-26.047 16.46-6.192 3.62-12.717 7.07-19.083 10.687a225.67 225.67 0 00-9.372 5.598c-3.073 1.902-6.059 3.848-8.883 5.944 7.933-4.002 17.265-8.718 26.632-12.525 9.382-3.817 18.759-6.804 26.604-7.674-3.681 2.87-9.947 6.379-14.34 9.818 4.259-2.048 8.178-2.69 10.338-1.094-7.279 6.9-19.747 14.234-32.724 20.963-13.135 6.485-26.767 12.379-36.205 16.793-33.909 16.256-67.809 32.609-102.334 47.742a52171.33 52171.33 0 00-33.255 13.938c-11.085 4.65-22.138 9.265-33.128 13.69-3.085 1.24-6.364 2.727-9.731 4.252-3.395 1.453-6.881 2.969-10.305 4.362-6.861 2.784-13.541 5.103-19.055 5.546.753-.064 15.004-9.107 17.579-10.211-13.057 1.956-29.975 11.574-42.838 16.653a989.274 989.274 0 01-11.957 4.624c-4.008 1.489-7.985 3.036-12.074 4.307a427.358 427.358 0 01-16.886 5.109c-13.278 9.908-26.7 19.575-40.384 28.614-28.524 18.863-105.421 49.723-116.525 79.212 11.269-.141 25.844-9.043 35.512-6.85-4.616 3.479-9.906 9.679-14.809 13.105 7.451-3.43 15.921-7.711 23.897-10.991-5.26 6.838-15.033 12.349-21.107 20.319 8.695-2.353 18.733-5.699 28.735-8.93 10.017-3.162 19.991-6.237 28.551-8.143-7.762 5.193-15.713 10.176-23.763 15.033-8.045 4.899-16.17 9.729-24.33 14.525-16.318 9.58-32.705 19.093-48.493 29.309-21.464 13.892-86.63 56.045-88.042 77.461 12.755 3.946 36.263-10.649 56.51-23.645 19.082 2.385 49.77-22.457 73.887-36.414 6.733-2.457 13.099-4.455 18.377-5.522-7.214 6.615-16.306 11.496-24.872 16.96 17.528 1.816 39.282-17.4 58.936-21.138a35.966 35.966 0 01-2.279 3.087c-6.812 6.486-15.691 12.552-23.03 18.672a69.114 69.114 0 004.738-1.058c16.997-3.146 38.339-10.577 59.139-19.603l.654-.042c-.76 7.153-7.471 13.819-15.711 19.787-8.222 6.012-17.965 11.353-24.885 15.784-12.525 8.012-26.451 16.751-39.338 26.219-36.756 20.748-89.959 49.355-101.921 78.16 33.895 1.952 81.15-39.339 116.148-48.386-2.492 10.784-20.025 20.814-30.755 30.059.374-.201.75-.415 1.127-.629-3.724 3.616-6.204 8.161-6.71 13.999 7.123 4.894 14.941 1.814 21.467 8.485-2.36 1.696-4.718 6.021-7.287 7.531 4.183-.391 8.912-1.181 13.425-1.241-2.192 5.11-7.556 6.646-10.125 12.563 10.354 2.71 23.464 3.406 33.772 6.66-16.325 9.174-35.296 12.942-52.218 20.969a242.99 242.99 0 00-12.099 6.054c-4.887 2.608-10.305 5.832-15.282 9.595-9.97 7.524-18.273 17.214-17.264 28.533 8.582 10.082 21.497 4.864 32.54-.063a23.2 23.2 0 001.396 1.132c-.113.101-.24.199-.352.3-3.037 2.515-6.111 4.943-9.252 7.143-3.153 2.198-6.405 4.122-9.727 5.695-2.553 1.203-6.359 1.596-10.645 1.887-2.143.146-4.406.283-6.692.47-2.298.184-4.62.418-6.876.813-9.014 1.593-16.87 5.758-17.615 18.332 4.977 6.076 10.394 4.55 14.972 12.212-1.646 1.18-3.259 4.901-5.04 5.868 2.916.414 6.189.503 9.373 1.37-1.53 4.437-5.248 4.941-7.025 10.141 4.244 2.653 9.186 4.881 14.012 7.304a2483.487 2483.487 0 00-14.967 12.43c-4.067.857-8.098 1.815-11.963 3.262-7.396 2.834-28.882 10.535-31.294 29.03-19.034 11.521-75.183 18.073-78.108 49.05 2.052 1.011 4.167 1.534 6.281 1.841 4 6.113 6.995 9.035 8.621 9.064-.074 3.047-1.869 4.159-1.956 6.691 3.934 4.119 7.507 7.053 10.715 9.112a17.341 17.341 0 00-1.061 1.961c1.784.193 3.631.344 5.523.462 5.106 2.218 9.019 1.979 11.683.757-.312 7.572-5.763 7.38-9.029 10.338l-.163.078zM1354.7-736.653c-2 .751-3.99 1.477-5.98 2.164 1.91-3.923 5.89-7.385 10.7-10.518-2.05 2.562-3.65 5.341-4.72 8.354zm19.67 5.592c1.24.363 2.44.799 3.64 1.261-1.29 1.071-1.95 2.649-2.04 4.25-5.84.963-11.42 1.272-16.44-.162 2.92-1.97 5.49-3.574 7.36-4.391-2.26.894-5.01 1.481-7.84 1.931 1.21-1.059 2.42-2.238 3.65-3.495 3.92.315 7.89.182 11.7.598l-.03.008zm-19.81 250.273c-2.22 2.207-4.54 4.235-6.91 6.158-3.1 1.695-5.99 2.903-8.62 3.04-3.93.208-11.73.947-20.53.597 6.73-4.641 13.38-9.377 19.99-14.175 12.67-9.145 25.12-18.667 37.66-27.997 2.94-.052 5.94.081 9.02.497-11.65-1.613-23.07 24.381-30.61 31.88zM979.992-152.024l.55-.277c.76-1.572 2.434-1.44 4.813.143-2.408 1.512-4.866 3.446-7.315 5.625.006-3.045.886-4.676 1.952-5.491zm-140.355 47.042c7.809-4.794 15.66-9.525 23.539-14.185a1729.068 1729.068 0 0147.715-27.201 1929.535 1929.535 0 0124.207-13.051c1.373-.718 2.766-1.406 4.149-2.109 1.34.044 2.679.168 4.015.454-2.736 5.28-4.5 11.656-3.89 20.3 3.164-3.503 8.143-8.372 13.749-14.014a.29.29 0 00.084-.093c-.499.812-.983 1.612-1.402 2.425 1.371-.126 2.749-.29 4.125-.442.043 1.747.153 3.721-.281 4.396 2.126.755 4.339 1.107 6.857 2.446 1.169 5.525-1.043 5.901.315 12.378.441.391.884.769 1.339 1.149-4.018 4.263-7.658 8.083-10.629 10.314-18.134 13.964-38.552 21.645-58.151 32.941-.543.318-1.074.639-1.618.957-2.97.317-5.824.736-8.661 1.213a246.55 246.55 0 00-8.497 1.567c-2.802.577-5.661 1.17-8.387 1.843a306.802 306.802 0 00-8.14 2.118c-3.946 1.081-8.108 2.824-12.159 4.844-4.061 2.004-8.234 4.243-12.496 6.237-4.303 2-8.473 3.782-12.907 4.882a37.68 37.68 0 01-6.966 1.08c6.955-13.132 15.367-24.366 29.47-26.292-4.4.62-9.534 1.269-14.578 1.502-5.025.277-9.971.123-14.055-.91 3.846-2.515 7.693-5.044 11.568-7.5l11.698-7.247-.013-.002zM1683.51 361.78a60.82 60.82 0 002.15-1.964c-11.04 8.082-23.1 16.515-31.21 22.278-1.16.609-2.33 1.205-3.47 1.803 2.75-3.323 6.05-6.41 9.55-9.325-1.59.542-3.37 1.322-5.22 2.194.18-.56.23-1.117.18-1.652 2.22-2.18 4.62-4.111 6.62-6.426a27.932 27.932 0 00-5.56-2.382c4.56-2.816 9.4-6.039 10.45-9.714-5.63.853-14.31 6.47-20.94 8.394-1.99-.015-3.97-.002-6-.131l.01-.026c6.1-3.745 11.89-7.144 16.23-9.974 16.4-10.684 33.13-22.088 46.85-35.095-11.94 9.008-33.25 19.463-47 22.506 3.21-3.01 7.17-5.626 9.3-9.009-8.16 1.994-17.05 10.2-24.37 9.908 4.1-2.793 8.53-5.281 11.61-8.853-6.37 1.039-16.82 9.863-26.26 15.611 11.44-7.927 22.6-16.339 32.22-25.584-8.34 6.393-21.45 13.53-33.04 18.087 3.26-2.272 6.52-4.532 9.78-6.791 1.8-.72 3.52-1.361 4.96-2.093 10.23-5.173 22.38-10.544 29.63-22.178 6.6-4.775 13.13-9.641 19.57-14.658 14.65-11.423 28.91-23.498 44.3-34.082 10.74-7.383 22.85-14.07 32.17-22.79-13.6 8.65-32.95 19.047-47.53 21.019 3.09-2.909 8.53-6.479 12.2-9.944-3.74 2.09-7.37 2.772-9.63 1.224 11.85-13.891 43.07-29.713 59.43-39.083 29.5-17.092 58.29-35.044 88.12-51.619 14.75-8.169 29.47-16.68 44.14-24.905 10.7-1.014 20.08-8.997 30.74-11.433-4.6 4.007-10.49 8.021-13.75 12.369 4.07.06 8.63-2.136 12.92-4.771-.29.216-.6.415-.88.62 3.16 2.158 16.16-3.448 26.43-8.397-.29.675-.49 1.352-.56 2.039 11.38-.821 21.25-9.225 32.55-11.76-4.8 4.12-10.93 8.236-14.34 12.706 2.06.027 4.24-.489 6.44-1.324-6.1 4.527-11.76 8.408-15.15 10.724-15.19 10.42-31.55 19.561-46.47 30.247 8.25-2.286 19.23-6.903 27.61-9.555-2.9 3.915-7.6 6.745-10.12 10.098 3.84-1.748 7.92-3.966 11.51-5.772-.62.452-1.25 1.01-1.88 1.595-7.86 3.881-15.75 7.703-23.7 11.433-17.15 7.97-42.35 18.062-65.91 30.115-23.5 11.872-45.37 25.918-56.11 42.09 6.05 6.421 14.3 7.113 22.15 3.702-3.53 3.787-8.09 7.357-12.52 10.669-4.42 3.313-8.71 6.488-11.7 9.606 1.42.233 2.86.402 4.31.561-22.26 18.612-44.41 38.147-67.65 54.139-17.08 11.758-35.46 23.507-54.19 34.584-3.58 1.325-6.78 1.964-8.98.927l.01.042zm-175.9-1198.544c6.93 2.527 13.61 3.186 19.71 2.677-25.39 16.931-50.8 36.176-78.35 50.029-11.56 5.804-33.42 10.349-53.43 17.498-6.28 2.245-12.37 4.738-17.88 7.608-3.53.497-7.06 1.143-10.61 1.881 1.41-1.71 2.73-3.489 3.88-5.395-6.01 1.013-12.41 2.318-18.99 3.618 4.17-3.361 8.38-6.618 12.65-9.715 1.01-.057 2.02-.141 3.02-.268 1.31-.164 2.59-.374 3.87-.623 1.27-.238 2.57-.553 3.74-.837 2.4-.583 4.73-1.315 7.04-2.118 1.14-.398 2.29-.832 3.39-1.237 1.07-.396 2.13-.808 3.19-1.22 2.1-.842 4.18-1.673 6.22-2.485 2.1-.827 4.26-1.631 6.36-2.337 1.69-.565 3.32-1.129 5.04-1.77 1.83-.702 3.66-1.431 5.48-2.188 3.64-1.503 7.26-3.102 10.86-4.786 7.18-3.346 14.32-7.021 21.3-10.834 6.89-3.791 13.67-7.762 20.38-11.761 6.7-4.011 13.29-8.044 19.92-12.112 7.73-4.74 15.55-9.06 23.22-13.636l-.01.011zM297.85 185.042c-5.465 2.892-10.971 5.642-16.52 8.33 15.093-11.571 31.117-25.275 47.498-35.787 6.185.381 13.489-.704 20.835-2.536-1.587 1.811-3.216 3.709-4.858 5.605a148.334 148.334 0 00-3.683 1.628c-14.854 6.749-28.87 15.174-43.285 22.758l.013.002zm396.022 87.683c5.76-3.175 14.114-7.855 21.609-13.798 7.557-5.918 14.306-13.09 16.734-21.244-10.987-.143-21.659 1.739-33.416-1.553 7.27 2.036 14.761-8.881 21.004-17.845a309.397 309.397 0 006.764-2.114 477.686 477.686 0 0011.492-3.928c-.094.805-.187 1.61-.236 2.464 5.081 6.095 10.433 6.903 15.494 10.541a195.008 195.008 0 0112.581-4.497c-1.775 1.225-4.195 2.654-6.805 4.17a363.236 363.236 0 00-3.653 2.052c1.486 1.378 2.925 3.084 4.322 5.39-2.4 1.689-4.744 7.041-7.346 8.437.696.101 1.42.193 2.147.273-19.831 11.239-40.158 21.728-60.691 31.652zm233.922 1.047c3.475-1.599 7.061-3.286 10.672-4.968.255.303.512.592.751.906-3.568 2.175-7.43 3.313-11.42 4.049l-.003.013zM2077.84 619.746c-5.99 4.655-13.57 7.942-18.78 11.069-5.96 3.597-12.35 7.382-18.6 11.545.23-.24.46-.493.7-.734 10.98-11.058 22.72-20.724 34.79-29.857 3.84-2.973 7.68-5.949 11.53-8.922.02 7.351-4.16 12.688-9.64 16.899zm593.2-1116.651a1.524 1.524 0 00-.18-.127c.2-.045.4-.09.58-.137-.14.083-.28.179-.4.264zm-98.57 107.486c2.91-1.811 6.46-2.588 10.35-2.696 7.78-.229 16.91 2.149 24.82 3.993 5.15 18.454-3.59 28.32-11.39 32.967l-1.66.854c-5.42 4.748-13.29 4.731-22.21.828 2.18-7.957 6.79-14.146 8.98-20.645-4.47-.673-11.01-5.662-15.37-6.422 1.29-4.278 3.56-7.096 6.48-8.866v-.013zm-246.41-160.079c-6.02 3.25-14.72 8.067-22.54 14.166-7.89 6.074-14.92 13.451-17.43 21.846 11.48.18 22.62-1.725 34.92 1.693-7.59-2.122-15.4 9.115-21.89 18.342-2.37.698-4.73 1.411-7.06 2.168-6.8 2.162-13.51 4.489-20.16 6.908-18.2 6.632-38.23 23.645-59.93 25.55 2.27-3.559 3.75-8.099 4.11-13.992-.4-.491-.82-.944-1.21-1.367 4.78-5.162 8.97-9.623 9.68-9.384-4.9-1.587-9.78-2.025-14.63-1.676a678.32 678.32 0 019.92-6.36c11.32-7.153 22.74-13.98 34.38-20.618 23.37-13.381 47.47-25.697 71.85-37.273l-.01-.003zm-397.38-138.074c-8.84-3.982-20.23 14.254-27.51 21.328-2.45.506-4.88 1.044-7.31 1.636-11.78 2.877-23.33 6.716-34.54 10.668-11.2 4.023-22.04 8.219-32.51 11.648-8.38 2.735-16.73 5.675-25.07 8.769-.11.046-.23.092-.36.135.2-.557.4-1.127.61-1.681 4.46-12.04 10.08-22.385 20.86-21.47-3.14-.239-6.82-.631-10.45-1.352-.53-.098-1.07-.237-1.6-.362 8.29-2.952 16.97-6.251 25.45-9.885 9.75-4.382 19.21-9.183 27.32-14.65 8.1-5.547 14.88-11.635 19.3-18.265-.34-.372-.68-.717-1.02-1.05 18.19-7.698 36.76-14.572 55.71-20.678-2.95 1.131-6.55 2.532-10.41 4.236-3.84 1.749-7.93 3.828-11.85 6.236-7.82 4.817-14.95 10.975-18.05 18.669 10.43 1.619 20.65 1.19 31.43 6.081v-.013zM1544.06-951.02c2-1.251 4.43-1.801 7.09-1.893 5.32-.183 11.57 1.451 16.98 2.728 3.49 12.785-2.51 19.649-7.85 22.874l-1.13.601c-3.73 3.306-9.1 3.303-15.19.609 1.5-5.521 4.68-9.818 6.18-14.34-3.05-.467-7.52-3.915-10.51-4.424.89-2.963 2.46-4.927 4.45-6.152l-.02-.003zm-168.28-110.58c-4.13 2.26-10.09 5.62-15.46 9.86-5.4 4.24-10.22 9.35-11.95 15.18.57.01 1.13.01 1.7 0-6.25 4.75-12.43 9.77-18.3 13.82-6.86 4.69-13.24 8.16-18.92 8.05 2.4-3.88 5.57-7.05 9.11-9.88 3.52-2.83 7.39-5.37 11.02-8.13-4.51-1.04-8.89-.4-13.24 1.1 2.27-1.35 4.54-2.7 6.83-4.01 16.02-9.33 32.52-17.91 49.22-25.99h-.01zM115.421-757.057c1.22-12.81 18.167-26.035 31.387-34.31l2.772-1.661c9.901-7.078 21.191-11.597 32.267-13.404-6.726 7.998-16.184 15.899-22.311 22.686 6.137-2 13.291-1.536 19.258-3.419-15.339 17.537-42.415 24.333-63.358 30.098l-.015.01zM84.363-571.111a240.568 240.568 0 00-5.36 4.381c-5.184 1.285-10.759 2.647-16.154 4.353 7.645-3.678 15.172-6.866 21.499-8.723l.015-.011z"/><path d="M351.639 292.726c9.98 1.077 23.014-.236 32.712-5.262l7.825 1.437c6.56-5.846 10.78-12.309 11.338-21.076-22.829-9.948-50.038-1.842-51.875 24.901zM428.695 367.155c-10.973.222-27.016 2.654-29.988 15.022-.637 2.66 1.845 4.558 4.277 4.6 6.545.11 12.215-1.841 17.942-4.766 1.07-.545 1.617-1.321 1.799-2.163 3.589-1.121 6.931-3.755 9.375-6.272 2.559-2.63-.127-6.507-3.389-6.432l-.016.011zM432.961 276.238c.516.715 1.335 1.243 2.466 1.396 3.37.444 6.32-.497 9.498-1.437 4.432-1.302 2.601-7.408-1.398-7.508-.148-1.618-1.185-3.089-3.145-3.355-2.077-.287-4.103-.119-5.9 1.006-1.064.654-1.902 1.767-3.038 2.3-1.946.91-3.175 2.827-2.371 4.983.552 1.477 2.235 2.662 3.888 2.615zM755.474 394.459c-10.147-2.443-19.612 3.516-26.411 10.369-.43.285-.754.656-1.008 1.082-1.528 2.159-.111 5.6 2.633 5.996 3.597.526 6.771.057 9.499-1.221 6.633-1.694 12.802-4.969 17.593-9.844 2.206-2.251.43-5.718-2.319-6.384l.013.002zM728.416 453.719c-11.462-2.549-21.876 2.629-32.082 6.968-4.709 2.007-2.207 8.64 2.737 7.337 1.94-.506 3.892-.93 5.86-1.296-.119 2.189 1.574 4.643 4.28 4.439 4.92-.364 9.738-1.569 14.695-1.696 3.509-.097 4.265-3.773 2.753-6.032.271-.449.507-.931.671-1.454.584-.243 1.17-.5 1.756-.756 3.554-1.585 3.357-6.608-.659-7.494l-.011-.016zM1240.27 535.417c.33-.128.65-.257.99-.385 1.27-.493 2.01-1.355 2.33-2.307 2.42-1.51 4.7-3.275 6.81-5.342 2.4-2.336.09-6.534-3.08-6.442-.53-1.97-2.55-3.704-5.19-3.124-2.07.443-4.11.972-6.11 1.56-1.99.403-3.98.739-6 1.096-1.37.248-2.31 1.019-2.85 1.985a90.882 90.882 0 00-29.56 19.4c-2.11 2.066-.55 5.979 2.32 6.383 13.8 1.928 26.02-4.792 38.08-10.261 1.19-.536 1.91-1.494 2.24-2.539l.02-.024zM1151.41 539.453c-10.63-3.662-21.78.167-29.38 7.857-2.58 2.625.15 6.511 3.39 6.431 1.61-.041 3.2-.222 4.76-.501.31.273.68.517 1.15.697 8.47 3.348 16.54-1.749 21.39-8.446 1.33-1.833 1.33-5.148-1.3-6.048l-.01.01zM1663.13 637.813c-.71-1.424-2.21-2.547-3.94-2.476-1.08.046-2.13.148-3.19.264-3.41-.261-6.78.049-10.11.786-.13-.981-.59-1.915-1.34-2.538-.78-1.194-2.08-2.039-3.62-1.851-2.65.309-5.15.996-7.51 1.99-4.75 1.461-9.03 4.314-13.11 7.556-1.72 1.369-1.83 3.383-1.07 4.952a4.161 4.161 0 00-.01 1.953c-3.86 2.201-7.63 4.341-11.26 6.047-1.46.689-2.35 2.331-2.45 3.903l-.06.029c-3.85 1.733-3.01 8.21 1.73 7.556 5.04-.704 10.07-2.208 14.92-4.269.83.408 1.84.528 2.98.117 9.73-3.485 18.47-8.672 27.25-13.869a101.93 101.93 0 0010.21-4.501c2.42-1.226 2.07-3.933.6-5.631l-.02-.018zM1592.74 694.281c-3.2.895-6.41 1.815-9.51 2.984-1.12.429-2.19.932-3.23 1.51-2.08 1.141-3.19 3.472-3.05 5.761.15 2.629 2.54 5.171 5.24 5.425 1.07.103 2.03.129 3.06-.017 2.36-.323 4.69-.906 6.97-1.538 1.44-.41 2.52-1.438 3.17-2.694l1.45-.421c3.11-.871 4.61-4.626 3.54-7.477-1.17-3.141-4.52-4.417-7.65-3.536l.01.003zM1677.82 701.397c-5.08.767-14.47 1.752-15.63 8.076-.02.144-.02.253-.04.383-3.82 1.106-7.85 1.739-12.13 2.867-7.41 1.956-3.27 12.947 4.1 11.011 4.34-1.143 8.83-1.573 13.17-2.798 6.11-1.722 11.16-5.58 15.59-9.888 3.64-3.537-.06-10.403-5.08-9.653l.02.002z"/></g></g><defs><clipPath id="prefix__clip0_58_864"><path fill="#fff" d="M0 0h1920v954H0z"/></clipPath><clipPath id="prefix__clip1_58_864"><path fill="#fff" transform="rotate(-170.647 1287.35 378.959)" d="M0 0h3044v2003H0z"/></clipPath></defs></svg>